<svg xmlns="http://www.w3.org/2000/svg" viewBox="0 0 186 106" shape-rendering="crispEdges"><g data-name="logo"><path fill="#a3d6ff" d="M64 0l-8 17 8 7V0z"/><path fill="#3db0ff" d="M40 39l24-15-8-7-16 22z"/><path fill="#b5d9f7" d="M30 34l26-17 8-17-34 34z"/><path fill="#75c4ef" d="M56 17L30 34l10 5 16-22z"/><path fill="#a4eaff" d="M0 64l40-25-10-5L0 64z"/><path fill="#8ec5f5" d="M64 0v24l16 3L64 0z"/><path fill="#b5dcff" d="M64 0l16 27 14 3L64 0z"/><path fill="#1a4184" d="M112 72l-5-29-18 6 23 23z"/><path fill="#202963" d="M122 58l-15-15 5 29 10-14z"/><path fill="#315e9e" d="M107 43L94 30l-5 19 18-6z"/><path fill="#2c005e" d="M122 82V58l-10 14 10 10z"/><path fill="#4786ba" d="M64 24l13 13 3-10-16-3z"/><path fill="#4991cc" d="M77 37l12 12-9-22-3 10z"/><path fill="#3f77a6" d="M89 49l5-19-14-3 9 22z"/><path fill="#9e0567" d="M149 65l-27-7v24l27-17z"/><path fill="#163372" d="M100 71l2 15 10-2-12-13z"/><path fill="#0a103a" d="M102 86l20 20-10-22-10 2z"/><path fill="#002270" d="M84 68l18 18-2-15-16-3z"/><path fill="#150056" d="M112 84l10 22V82l-10 2z"/><path fill="#1b6294" d="M77 49h12L77 37v12z"/><path fill="#0064bd" d="M64 48l20 20-7-19-13-1z"/><path fill="#306b94" d="M64 24v24l13-11-13-13z"/><path fill="#1e5ba6" d="M89 49l11 22 12 1-23-23z"/><path fill="#00143c" d="M100 71l12 13V72l-12-1z"/><path fill="#224c69" d="M77 37L64 48l13 1V37z"/><path fill="#163c70" d="M89 49l-5 19 16 3-11-22z"/><path fill="#1c5084" d="M77 49l7 19 5-19H77z"/><path fill="#371863" d="M112 84l10-2-10-10v12z"/><path fill="#ce84bf" d="M122 106l35-35-8-6-27 41z"/><path fill="#e2acd4" d="M149 65l8 6 29-29-37 23z"/><path fill="#872983" d="M122 82v24l27-41-27 17z"/><path fill="#69d0e8" d="M0 64l64-16-24-9L0 64z"/><path fill="#2e90c6" d="M40 39l24 9V24L40 39z"/><path fill="#efc2e6" d="M146 52l3 13 37-23-40 10z"/><path fill="#c163a9" d="M146 52l-24 6 27 7-3-13z"/></g></svg>