<svg id="logo" xmlns="http://www.w3.org/2000/svg" viewBox="0 0 186 106" shape-rendering="crispEdges"><defs><style>.cls-1{fill:#a3d6ff;}.cls-2{fill:#3db0ff;}.cls-3{fill:#b5d9f7;}.cls-4{fill:#75c4ef;}.cls-5{fill:#a4eaff;}.cls-6{fill:#8ec5f5;}.cls-7{fill:#b5dcff;}.cls-8{fill:#1a4184;}.cls-9{fill:#202963;}.cls-10{fill:#315e9e;}.cls-11{fill:#2c005e;}.cls-12{fill:#4786ba;}.cls-13{fill:#4991cc;}.cls-14{fill:#3f77a6;}.cls-15{fill:#9e0567;}.cls-16{fill:#163372;}.cls-17{fill:#0a103a;}.cls-18{fill:#002270;}.cls-19{fill:#150056;}.cls-20{fill:#1b6294;}.cls-21{fill:#0064bd;}.cls-22{fill:#306b94;}.cls-23{fill:#1e5ba6;}.cls-24{fill:#00143c;}.cls-25{fill:#224c69;}.cls-26{fill:#163c70;}.cls-27{fill:#1c5084;}.cls-28{fill:#371863;}.cls-29{fill:#ce84bf;}.cls-30{fill:#e2acd4;}.cls-31{fill:#872983;}.cls-32{fill:#69d0e8;}.cls-33{fill:#2e90c6;}.cls-34{fill:#efc2e6;}.cls-35{fill:#c163a9;}</style></defs><title>eclair-logo</title><g id="logo-2" data-name="logo"><polygon class="cls-1" points="64 0 56 17 64 24 64 0"/><polygon class="cls-2" points="40 39 64 24 56 17 40 39"/><polygon class="cls-3" points="30 34 56 17 64 0 30 34"/><polygon class="cls-4" points="56 17 30 34 40 39 56 17"/><polygon class="cls-5" points="0 64 40 39 30 34 0 64"/><polygon class="cls-6" points="64 0 64 24 80 27 64 0"/><polygon class="cls-7" points="64 0 80 27 94 30 64 0"/><polygon class="cls-8" points="112 72 107 43 89 49 112 72"/><polygon class="cls-9" points="122 58 107 43 112 72 122 58"/><polygon class="cls-10" points="107 43 94 30 89 49 107 43"/><polygon class="cls-11" points="122 82 122 58 112 72 122 82"/><polygon class="cls-12" points="64 24 77 37 80 27 64 24"/><polygon class="cls-13" points="77 37 89 49 80 27 77 37"/><polygon class="cls-14" points="89 49 94 30 80 27 89 49"/><polygon class="cls-15" points="149 65 122 58 122 82 149 65"/><polygon class="cls-16" points="100 71 102 86 112 84 100 71"/><polygon class="cls-17" points="102 86 122 106 112 84 102 86"/><polygon class="cls-18" points="84 68 102 86 100 71 84 68"/><polygon class="cls-19" points="112 84 122 106 122 82 112 84"/><polygon class="cls-20" points="77 49 89 49 77 37 77 49"/><polygon class="cls-21" points="64 48 84 68 77 49 64 48"/><polygon class="cls-22" points="64 24 64 48 77 37 64 24"/><polygon class="cls-23" points="89 49 100 71 112 72 89 49"/><polygon class="cls-24" points="100 71 112 84 112 72 100 71"/><polygon class="cls-25" points="77 37 64 48 77 49 77 37"/><polygon class="cls-26" points="89 49 84 68 100 71 89 49"/><polygon class="cls-27" points="77 49 84 68 89 49 77 49"/><polygon class="cls-28" points="112 84 122 82 112 72 112 84"/><polygon class="cls-29" points="122 106 157 71 149 65 122 106"/><polygon class="cls-30" points="149 65 157 71 186 42 149 65"/><polygon class="cls-31" points="122 82 122 106 149 65 122 82"/><polygon class="cls-32" points="0 64 64 48 40 39 0 64"/><polygon class="cls-33" points="40 39 64 48 64 24 40 39"/><polygon class="cls-34" points="146 52 149 65 186 42 146 52"/><polygon class="cls-35" points="146 52 122 58 149 65 146 52"/></g></svg>