<?xml version="1.0" encoding="utf-8"?>
<!DOCTYPE svg PUBLIC "-//W3C//DTD SVG 1.1//EN" "http://www.w3.org/Graphics/SVG/1.1/DTD/svg11.dtd">
<svg version="1.1" xmlns="http://www.w3.org/2000/svg" xmlns:xlink="http://www.w3.org/1999/xlink" x="0px" y="0px" viewBox="0 0 1000 1000" enable-background="new 0 0 1000 1000" xml:space="preserve">
<g><path fill="#3E474A"  d="M207.5,10c-12.4,0-22.3,10-22.3,22.3v935.3c0,12.4,10,22.4,22.3,22.4h584.9c12.4,0,22.4-10,22.4-22.4V32.3c0-12.4-10-22.3-22.4-22.3H207.5L207.5,10z M256.3,118.9h487.5v139.7H256.3V118.9L256.3,118.9z M256.3,293.3h487.5V433H256.3V293.3z M256.3,464.9h487.5v139.7H256.3V464.9L256.3,464.9z M500,834.8c28.7,0,52,23.3,52,52.1s-23.3,52-52,52c-28.7,0-52.1-23.3-52.1-52S471.3,834.8,500,834.8L500,834.8z"/></g>
</svg>