<svg xmlns="http://www.w3.org/2000/svg" viewBox="0 0 69.9 107.3"><path fill="#68B044" d="M40.1 8l-2.9 11.3c4-8 10.5-14 17.8-19.3-5.4 6.3-10.3 12.5-13.3 18.8 5.1-7.1 11.9-11.1 19.6-13.7C51.2 14.2 43 24 36.9 33.8L32 31.7c.8-7.9 3.8-15.9 8.1-23.7z"/><path fill="#F5F8DE" d="M27 29.6l9.4 3.9c0 2.4-.2 9.6 1.3 11.8 15.6 20 12.9 60.2-3.2 61.2C10 106.5.7 89.9.7 74.6c0-14 16.7-23.2 26.7-31.5 2.5-2.3 2.1-7.2-.4-13.5z"/><path fill="#7E4798" d="M36.4 33.3l3.4 1.7c-.3 2.2.2 7.1 2.4 8.4C52 49.5 61.3 56.2 65 62.8c13 23.5-9.1 45.2-28.2 43.1 10.4-7.7 13.4-23.5 9.5-40.7-1.6-6.7-4-12.8-8.4-19.7-2-3.3-1.4-7.5-1.5-12.2z"/><g><path fill="#010101" d="M32.6 44.5c-.7 3.6-1.5 10.2-4.7 12.7-1.3 1-2.7 1.9-4.1 2.9-5.7 3.9-11.4 7.5-14 16.9-.6 2-.1 4.1.4 6.1 1.4 5.7 5.5 11.9 8.6 15.5 0 .2.6.6.6.7 2.6 3.1 3.4 4 13.3 6.2l-.2 1.1c-5.9-1.6-10.9-3-14-6.6 0-.1-.6-.6-.6-.6-3.3-3.8-7.4-10.1-8.9-16.1-.6-2.4-1-4.2-.4-6.7 2.7-9.7 8.6-13.5 14.5-17.5 1.3-.9 2.9-1.7 4.2-2.7 2.6-1.9 4-7.4 5.3-11.9z"/><path fill="#010101" d="M35.1 59.7c.1 4.1-.3 6.2.7 9.1.6 1.7 2.8 4.1 3.4 6.4.9 3.1 1.8 6.5 1.7 8.6 0 2.4-.1 6.8-1.2 11.6-.8 3.9-2.6 7.3-5.6 9.2-3.1-.6-6.8-1.7-8.9-3.6-4.2-3.6-7.9-9.7-8.4-15.1-.4-4.4 3.6-10.8 9.3-14 4.8-2.8 5.9-5.9 6.9-11-1.4 4.4-2.8 8.2-7.4 10.5-6.7 3.5-10.1 9.3-9.8 14.9.5 7.1 3.3 12 9 15.9 2.4 1.7 6.8 3.4 9.6 3.9v-.4c2.1-.4 4.8-3.8 6.2-8.5 1.2-4.2 1.7-9.6 1.6-13-.1-2-1-6.3-2.5-10.2-.9-2.1-2.2-4.3-3.1-5.8-1-1.4-1-4.7-1.5-8.5z"/><path fill="#010101" d="M34.4 76c.1 2.8 1.2 6.3 1.7 10 .4 2.7.2 5.4.1 7.8-.1 2.8-1 7.7-2.2 10.1-1.2-.5-1.6-1.2-2.4-2.2-1-1.3-1.6-2.7-2.2-4.3-.5-1.2-1-2.6-1.3-4.1-.3-2.4-.2-6.1 2.5-9.9 2.1-3 2.5-3.2 3.2-6.7-1 3.1-1.7 3.4-3.9 6-2.5 2.9-2.9 7.1-2.9 10.5 0 1.4.6 3 1.1 4.5.6 1.6 1.2 3.2 2 4.4 1.3 1.9 3 3 3.8 3.2h.1v-.1c1.5-1.7 2.5-3.4 2.8-5.1.4-2.1.5-4.1.7-6.6.2-2.1.1-4.8-.5-7.7-.7-3.7-2-7.3-2.6-9.8z"/><path fill="#010101" d="M34.9 41.1c.1 4.1.4 11.8 1.5 14.8.3 1 3.2 5.5 5.3 11 1.4 3.8 1.7 7.3 2 8.3 1 4.5-.2 12.1-1.8 19.3-.8 3.9-3.5 8.7-6.6 10.6l-.6 1.1c1.7-.1 6-4.3 7.5-9.5 2.5-8.9 3.6-13 2.4-22.8-.2-1-.6-4.2-2.1-7.7-2.2-5.3-5.4-10.4-5.8-11.4-.7-1.5-1.6-8.7-1.8-13.7z"/><path fill="#010101" d="M36.4 33.7c-.2 4.2-.3 7.6.5 10.7.9 3.4 5.3 8.3 7.1 14 3.5 10.8 2.6 24.9.1 35.9-1 3.9-5.5 9.5-10 11.3l3.3.8c1.8-.1 6.5-4.4 8.3-9.4 2.9-7.8 3.5-17.2 2.3-27-.1-1-1.7-9.4-3.2-13-2.1-5.3-5.5-9-6.7-12.3-.9-2.4-1.3-9-.7-10.4l-1-.6z"/></g><g><path fill="#010101" d="M59.9 54.5c-3.4-3.1-7.7-5.6-12.1-8.1-2-1.1-8.1-5.9-6-12.7l-15.5-6.3-1 .8c5.2 9.3 2.5 14.2-.1 15.9-5.2 3.5-12.7 8-16.5 11.9C1.5 63.4-.6 70.4.1 79.7c.7 11.9 9.4 21.8 20.9 25.7 5.1 1.7 9.8 1.9 15 1.9 8.4 0 17-2.2 23.3-7.5 6.7-5.5 10.6-13.9 10.6-22.5 0-8.7-3.6-17-10-22.8zm-2.3 43.4c-5.7 4.8-16.2 8-21.6 7.8-6.1-.3-12.1-1.3-17.4-3.9C9.3 97.3 3.1 87.6 2.7 79.7 1.9 63.6 9.6 58.9 16.8 53c4-3.3 9.6-4.9 12.8-10.8.6-1.3 1-4.1.2-7.1-.3-1-1.8-4.6-2.4-5.4L39 34.9c-1.4 5.3 2.9 10.9 6.4 12.8 3.5 2 9.1 5.7 12.5 8.8 5.9 5.3 9.1 12.8 9.1 20.8.1 7.8-3.3 15.5-9.4 20.6z"/></g></svg>