<?xml version="1.0" encoding="utf-8"?>
<!DOCTYPE svg PUBLIC "-//W3C//DTD SVG 1.1//EN" "http://www.w3.org/Graphics/SVG/1.1/DTD/svg11.dtd">
<svg version="1.1" xmlns="http://www.w3.org/2000/svg" xmlns:xlink="http://www.w3.org/1999/xlink" x="0px" y="0px" viewBox="0 0 1000 1000" enable-background="new 0 0 1000 1000" xml:space="preserve">
<g><g fill="#3E474A" transform="translate(0.000000,511.000000) scale(0.100000,-0.100000)"><path d="M6998.9,4985.3c-214.9-30.4-499.9-114.5-584-170.5c-151.8-102.8-168.2-264-32.7-378.4c84.1-72.4,123.8-70.1,471.9,23.4c934.4,250,1931.9-210.2,2359.4-1090.9c144.9-299,198.6-542,198.6-894.7c0-233.6-11.7-324.7-60.7-513.9c-95.8-355.1-95.8-387.8-14-478.9c58.4-65.4,86.4-79.4,168.2-79.4c133.2,0,214.9,93.4,282.6,320c184.6,621.4,140.2,1245.1-128.5,1831.4C9199.5,4550.8,8094.5,5146.5,6998.9,4985.3z"/><path d="M7122.7,4074.3c-200.9-35-357.4-91.1-425.1-156.5c-130.8-119.1-65.4-348.1,109.8-392.5c37.4-9.3,109.8,0,182.2,25.7c158.8,53.7,441.5,70.1,602.7,37.4c436.9-91.1,796.6-450.9,885.4-883c35-165.8,21-420.5-35-593.4c-49-151.8-35-231.3,46.7-315.4c77.1-77.1,217.3-77.1,308.4,0c130.8,109.8,214.9,539.6,170.5,869c-51.4,390.1-193.9,675.1-478.9,957.8c-205.5,205.6-455.5,350.4-719.5,415.8C7589.9,4085.9,7281.6,4102.3,7122.7,4074.3z"/><path d="M7132.1,3132.8c-306-137.8-165.8-532.6,158.9-450.9c191.5,49.1,329.4-95.8,280.3-289.7c-44.4-170.5,35-294.3,200.9-317.7c72.4-9.3,102.8,0,161.2,49.1c98.1,84.1,130.8,193.9,119.1,397.1c-16.4,259.3-147.2,460.2-376.1,579.3C7552.5,3163.2,7241.8,3184.2,7132.1,3132.8z"/><path d="M5840.2,3023c-250-49.1-196.2,0-2962.1-2763.5C-100.3-2714.3,102.9-2487.7,102.9-2849.7c0-327.1,23.4-359.8,801.3-1137.7c780.2-777.9,812.9-801.3,1137.7-801.3c362.1,0,135.5-200.9,3109.3,2775.2C7171.8,7.2,7804.9,656.6,7842.2,736.1c109.8,235.9,109.8,469.5,0,700.8c-35,72.4-243,299-682.1,742.9c-348,352.7-677.5,670.4-731.2,707.8C6251.4,3011.4,6031.8,3060.4,5840.2,3023z M6153.3,2016.2c254.6-63.1,530.3-282.7,661.1-527.9c95.8-179.9,123.8-301.4,123.8-516.3c0-532.6-364.4-960.1-894.7-1055.9c-329.4-58.4-682.1,56.1-927.4,301.3c-373.8,371.4-429.8,925.1-137.8,1359.6C5232.9,1960.1,5690.7,2130.7,6153.3,2016.2z M4244.7,453.4c264-128.5,310.7-497.6,86.4-693.8c-345.7-303.7-852.7,56.1-677.5,478.9c49.1,116.8,98.1,168.2,210.2,219.6C3987.7,516.5,4118.6,514.1,4244.7,453.4z M5207.2-488c243-161.2,243-544.3,2.4-705.5c-271-177.5-619.1-28-670.5,289.7c-28,182.2,102.8,401.8,282.7,469.5C4926.8-396.9,5106.7-422.6,5207.2-488z"/><path d="M5728.1,1579.4c-299-77.1-495.2-352.7-467.2-654.1c35-397.1,427.5-654.1,801.3-530.3c429.8,142.5,560.6,696.1,240.6,1016.2C6162.6,1553.7,5910.3,1626.1,5728.1,1579.4z"/></g></g>
</svg>