<svg width="962" height="962" xmlns="http://www.w3.org/2000/svg"><g fill-rule="nonzero" fill="none"><path d="M748.231 1.93c-15.834 2.24-36.833 8.438-43.03 12.565-11.185 7.576-12.393 19.456-2.41 27.886 6.197 5.336 9.122 5.166 34.771-1.724 68.85-18.424 142.347 15.49 173.846 80.393 10.677 22.035 14.634 39.943 14.634 65.935 0 17.215-.862 23.928-4.473 37.871-7.058 26.17-7.058 28.58-1.031 35.293 4.303 4.82 6.366 5.851 12.393 5.851 9.815 0 15.834-6.883 20.823-23.582 13.602-45.794 10.33-91.757-9.468-134.964C910.376 33.95 828.958-9.95 748.23 1.93z" fill="#3E474A"/><path d="M726.077 80.535c-9.622 8.77-4.811 25.635 8.077 28.904 2.752.685 8.078 0 13.404-1.892 11.682-3.955 32.479-5.163 44.337-2.755 32.14 6.71 58.601 33.205 65.134 65.025 2.575 12.21 1.545 30.966-2.575 43.698-3.604 11.18-2.575 17.034 3.436 23.227 5.671 5.677 15.985 5.677 22.687 0 9.622-8.086 15.809-39.737 12.543-63.994-3.782-28.727-14.264-49.715-35.23-70.533-15.118-15.14-33.509-25.804-52.93-30.62-13.241-3.439-35.921-4.646-47.61-2.584-14.78 2.577-26.293 6.708-31.273 11.524z" fill="#3E474A"/><path d="M769.38 171.201c14.196-3.602 24.419 7.029 20.779 21.255-3.292 12.509 2.595 21.592 14.893 23.308 5.368.683 7.621 0 11.95-3.602 7.273-6.17 9.697-14.226 8.83-29.134-1.216-19.024-10.913-33.764-27.882-42.502-9.185-4.636-32.218-6.177-40.35-2.406-22.686 10.11-12.292 39.075 11.78 33.081z" fill="#64B05E"/><path d="M586.02 168.7c-25 4.91-19.62 0-296.21 276.35C-8.03 742.43 12.29 719.77 12.29 755.97c0 32.71 2.34 35.98 80.13 113.77 78.02 77.79 81.29 80.13 113.77 80.13 36.21 0 13.55 20.09 310.93-277.52 202.06-202.07 265.37-267.01 269.1-274.96 10.98-23.59 10.98-46.95 0-70.08-3.5-7.24-24.3-29.9-68.21-74.29-34.8-35.27-67.75-67.04-73.12-70.78-17.75-12.38-39.71-17.28-58.87-13.54z" stroke="#3E474A" stroke-width="20" fill="#FFF"/><path d="M617.33 269.38c25.46 6.31 53.03 28.27 66.11 52.79 9.58 17.99 12.38 30.14 12.38 51.63 0 53.26-36.44 96.01-89.47 105.59-32.94 5.84-68.21-5.61-92.74-30.13-37.38-37.14-42.98-92.51-13.78-135.96 25.46-38.31 71.24-55.37 117.5-43.92z" fill="#3E474A"/><path d="M574.81 313.06c-29.9 7.71-49.52 35.27-46.72 65.41 3.5 39.71 42.75 65.41 80.13 53.03 42.98-14.25 56.06-69.61 24.06-101.62-14.02-14.25-39.25-21.49-57.47-16.82z" fill="#FFF"/><path d="M426.47 425.66c26.4 12.85 31.07 49.76 8.64 69.38-34.57 30.37-85.27-5.61-67.75-47.89 4.91-11.68 9.81-16.82 21.02-21.96 12.39-5.84 25.48-5.6 38.09.47zM522.72 519.8c24.3 16.12 24.3 54.43.24 70.55-27.1 17.75-61.91 2.8-67.05-28.97-2.8-18.22 10.28-40.18 28.27-46.95 10.5-3.74 28.49-1.17 38.54 5.37z" fill="#3E474A"/></g></svg>