<svg xmlns="http://www.w3.org/2000/svg" viewBox="0 0 1000 1000"><g fill="#3E474A"><path d="M699.89 12.47c-21.49 3.04-49.99 11.45-58.4 17.05-15.18 10.28-16.82 26.4-3.27 37.84 8.41 7.24 12.38 7.01 47.19-2.34 93.44-25 193.19 21.02 235.94 109.09 14.49 29.9 19.86 54.2 19.86 89.47 0 23.36-1.17 32.47-6.07 51.39-9.58 35.51-9.58 38.78-1.4 47.89 5.84 6.54 8.64 7.94 16.82 7.94 13.32 0 21.49-9.34 28.26-32 18.46-62.14 14.02-124.51-12.85-183.14C919.95 55.92 809.45-3.65 699.89 12.47z"/><path d="M712.27 103.57c-20.09 3.5-35.74 9.11-42.51 15.65-13.08 11.91-6.54 34.81 10.98 39.25 3.74.93 10.98 0 18.22-2.57 15.88-5.37 44.15-7.01 60.27-3.74 43.69 9.11 79.66 45.09 88.54 88.3 3.5 16.58 2.1 42.05-3.5 59.34-4.9 15.18-3.5 23.13 4.67 31.54 7.71 7.71 21.73 7.71 30.84 0 13.08-10.98 21.49-53.96 17.05-86.9-5.14-39.01-19.39-67.51-47.89-95.78-20.55-20.56-45.55-35.04-71.95-41.58-18-4.67-48.83-6.31-64.72-3.51z"/><path d="M713.21 197.72c-30.6 13.78-16.58 53.26 15.89 45.09 19.15-4.91 32.94 9.58 28.03 28.97-4.44 17.05 3.5 29.43 20.09 31.77 7.24.93 10.28 0 16.12-4.91 9.81-8.41 13.08-19.39 11.91-39.71-1.64-25.93-14.72-46.02-37.61-57.93-12.39-6.32-43.46-8.42-54.43-3.28zM584.02 208.7c-25 4.91-19.62 0-296.21 276.35C-10.03 782.43 10.29 759.77 10.29 795.97c0 32.71 2.34 35.98 80.13 113.77 78.02 77.79 81.29 80.13 113.77 80.13 36.21 0 13.55 20.09 310.93-277.52 202.06-202.07 265.37-267.01 269.1-274.96 10.98-23.59 10.98-46.95 0-70.08-3.5-7.24-24.3-29.9-68.21-74.29-34.8-35.27-67.75-67.04-73.12-70.78-17.75-12.38-39.71-17.28-58.87-13.54zm31.31 100.68c25.46 6.31 53.03 28.27 66.11 52.79 9.58 17.99 12.38 30.14 12.38 51.63 0 53.26-36.44 96.01-89.47 105.59-32.94 5.84-68.21-5.61-92.74-30.13-37.38-37.14-42.98-92.51-13.78-135.96 25.46-38.31 71.24-55.37 117.5-43.92zM424.47 465.66c26.4 12.85 31.07 49.76 8.64 69.38-34.57 30.37-85.27-5.61-67.75-47.89 4.91-11.68 9.81-16.82 21.02-21.96 12.39-5.84 25.48-5.6 38.09.47zm96.25 94.14c24.3 16.12 24.3 54.43.24 70.55-27.1 17.75-61.91 2.8-67.05-28.97-2.8-18.22 10.28-40.18 28.27-46.95 10.5-3.74 28.49-1.17 38.54 5.37z"/><path d="M572.81 353.06c-29.9 7.71-49.52 35.27-46.72 65.41 3.5 39.71 42.75 65.41 80.13 53.03 42.98-14.25 56.06-69.61 24.06-101.62-14.02-14.25-39.25-21.49-57.47-16.82z"/></g></svg>