<?xml version="1.0" encoding="iso-8859-1"?>
<!-- Generator: Adobe Illustrator 19.0.0, SVG Export Plug-In . SVG Version: 6.00 Build 0)  -->
<svg version="1.1" id="Capa_1" xmlns="http://www.w3.org/2000/svg" xmlns:xlink="http://www.w3.org/1999/xlink" x="0px" y="0px"
	 viewBox="0 0 121.669 121.669" style="enable-background:new 0 0 121.669 121.669;" xml:space="preserve">
<g>
	<path  fill="#fff" d="M60.834,121.669C27.291,121.669,0,94.379,0,60.834C0,27.29,27.291,0,60.834,0s60.834,27.29,60.834,60.834
		C121.669,94.379,94.378,121.669,60.834,121.669z M60.834,6C30.599,6,6,30.599,6,60.834c0,30.236,24.599,54.835,54.834,54.835
		s54.834-24.599,54.834-54.835C115.669,30.599,91.07,6,60.834,6z"/>
	<path fill="#fff" d="M78.843,97.437h-6c0-5.642-5.477-10.231-12.208-10.231s-12.208,4.59-12.208,10.231h-6c0-8.95,8.168-16.231,18.208-16.231
		S78.843,88.486,78.843,97.437z"/>
	<path fill="#fff" d="M32.14,69.218c-7.853,0-14.242-7.115-14.242-15.86h6c0,5.437,3.697,9.86,8.242,9.86s8.242-4.423,8.242-9.86h6
		C46.382,62.103,39.993,69.218,32.14,69.218z"/>
	<path fill="#fff" d="M89.529,69.218c-7.854,0-14.242-7.115-14.242-15.86h6c0,5.437,3.697,9.86,8.242,9.86s8.242-4.423,8.242-9.86h6
		C103.771,62.103,97.382,69.218,89.529,69.218z"/>
</g>
<g>
</g>
<g>
</g>
<g>
</g>
<g>
</g>
<g>
</g>
<g>
</g>
<g>
</g>
<g>
</g>
<g>
</g>
<g>
</g>
<g>
</g>
<g>
</g>
<g>
</g>
<g>
</g>
<g>
</g>
</svg>
