<svg xmlns="http://www.w3.org/2000/svg" viewBox="0 0 121.669 121.669"><g fill="#6c757d"><path d="M60.834 121.669C27.291 121.669 0 94.379 0 60.834 0 27.29 27.291 0 60.834 0s60.834 27.29 60.834 60.834c.001 33.545-27.29 60.835-60.834 60.835zM60.834 6C30.599 6 6 30.599 6 60.834c0 30.236 24.599 54.835 54.834 54.835s54.834-24.599 54.834-54.835C115.669 30.599 91.07 6 60.834 6z"/><path d="M78.843 97.437h-6c0-5.642-5.477-10.231-12.208-10.231s-12.208 4.59-12.208 10.231h-6c0-8.95 8.168-16.231 18.208-16.231s18.208 7.28 18.208 16.231zM32.14 69.218c-7.853 0-14.242-7.115-14.242-15.86h6c0 5.437 3.697 9.86 8.242 9.86s8.242-4.423 8.242-9.86h6c0 8.745-6.389 15.86-14.242 15.86zM89.529 69.218c-7.854 0-14.242-7.115-14.242-15.86h6c0 5.437 3.697 9.86 8.242 9.86s8.242-4.423 8.242-9.86h6c0 8.745-6.389 15.86-14.242 15.86z"/></g></svg>
